<svg width="21" height="20" viewBox="0 0 21 20" fill="none" xmlns="http://www.w3.org/2000/svg">
<g clip-path="url(#clip0_1_4)">
<path d="M18.0216 0.00465393L3.66868 0.00465454C2.02913 0.00465461 0.694987 1.2987 0.694987 2.88899V16.8107C0.694987 18.401 2.02913 19.695 3.66868 19.695H9.65566V12.7342H7.27676V9.27297H9.65566V6.92705C9.65566 5.01843 11.2564 3.46585 13.2241 3.46585H16.8322V6.92705H13.2241V9.27297H16.8322L16.2374 12.7342H13.2241V19.695H18.0216C19.6612 19.695 20.9953 18.401 20.9953 16.8107L20.9953 2.88899C20.9953 1.2987 19.6612 0.00465386 18.0216 0.00465393Z" fill="black"/>
</g>
<defs>
<clipPath id="clip0_1_4">
<rect width="19.6904" height="20.3003" fill="white" transform="translate(20.9953 0.00465393) rotate(90)"/>
</clipPath>
</defs>
</svg>
