<svg width="21" height="20" viewBox="0 0 21 20" fill="none" xmlns="http://www.w3.org/2000/svg">
<g clip-path="url(#clip0_1_2)">
<path d="M10.8008 0.50474C5.27858 0.330091 0.667937 4.54812 0.497891 9.92483C0.361818 14.2273 3.10999 17.9666 7.03982 19.3785C7.53668 19.4859 7.72941 19.1904 7.73759 18.9319C7.7449 18.7007 7.75598 18.0879 7.77745 17.2761C4.97867 17.7752 4.45214 15.8634 4.45214 15.8634C4.03291 14.7253 3.38525 14.404 3.38525 14.404C2.49899 13.7717 3.47391 13.815 3.47391 13.815C4.47546 13.9145 4.97311 14.8666 4.97311 14.8666C5.81719 16.3834 7.27927 15.9991 7.85854 15.7687C7.96842 15.1415 8.23934 14.7212 8.5327 14.4866C6.32072 14.1729 4.01417 13.2618 4.13214 9.53149C4.16575 8.46886 4.58053 7.61251 5.24345 6.95162C5.13879 6.70202 4.83276 5.70138 5.4124 4.3775C5.4124 4.3775 6.25774 4.14307 8.12946 5.46265C8.9359 5.27162 9.78887 5.19115 10.6386 5.21307C11.488 5.24489 12.3342 5.3791 13.1269 5.62071C15.0658 4.42164 15.8946 4.70902 15.8946 4.70902C16.3894 6.06688 16.0208 7.04618 15.9131 7.28906C16.5287 7.99039 16.8885 8.87124 16.8549 9.93387C16.7366 13.6742 14.3743 14.4234 12.1428 14.5925C12.4834 14.8958 12.7894 15.5031 12.7605 16.4154C12.7193 17.7184 12.6737 18.7649 12.6637 19.0811C12.6556 19.3363 12.8209 19.6465 13.3362 19.5652C17.3755 18.4135 20.352 14.8529 20.4879 10.557C20.6579 5.18034 16.3205 0.679309 10.8008 0.50474Z" fill="#212121"/>
</g>
<defs>
<clipPath id="clip0_1_2">
<rect width="19" height="20" fill="white" transform="translate(20.5 0.499985) rotate(90)"/>
</clipPath>
</defs>
</svg>
